<svg preserveAspectRatio="none" overflow="visible" style="display: block;" width="25.383" height="14.7778" viewBox="0 0 25.383 14.7778" fill="none" xmlns="http://www.w3.org/2000/svg">
<g id="windsurf 1" clip-path="url(#clip0_0_126)">
<path id="Vector" fill-rule="evenodd" clip-rule="evenodd" d="M25.1437 0.00431698L24.9019 0.00431698C23.6292 0.00233437 22.5964 1.0337 22.5964 2.30703V7.45689C22.5964 8.48528 21.747 9.31831 20.7359 9.31831C20.1353 9.31831 19.5356 9.01584 19.1798 8.50809L13.9224 0.996012C13.4863 0.372237 12.7767 0.000350051 12.0085 0.000350051C10.8101 0.000350051 9.7317 1.01981 9.7317 2.27827V7.45789C9.7317 8.48628 8.88918 9.31929 7.87123 9.31929C7.26858 9.31929 6.66991 9.01683 6.31407 8.50908L0.431351 0.103487C0.298535 -0.0859261 0.000183327 0.00729181 0.000183327 0.239349L0.000183327 4.73073C0.000183327 4.95782 0.0695659 5.17799 0.199416 5.36442L5.98797 13.6361C6.32993 14.125 6.83445 14.4879 7.41628 14.6198C8.87233 14.9511 10.2124 13.8295 10.2124 12.4004V7.22385C10.2124 6.19546 11.0451 5.36244 12.0729 5.36244H12.0759C12.6954 5.36244 13.2763 5.6649 13.6321 6.17265L18.8893 13.6837C19.3264 14.3084 19.9995 14.6794 20.8023 14.6794C22.0275 14.6794 23.0771 13.6589 23.0771 12.4014V7.22285C23.0771 6.19447 23.9097 5.36144 24.9376 5.36144H25.1427C25.2716 5.36144 25.3756 5.25732 25.3756 5.1284V0.236374C25.3756 0.107454 25.2716 0.00332486 25.1427 0.00332486L25.1437 0.00431698Z" fill="#252525"/>
</g>
<defs>
<clipPath id="clip0_0_126">
<rect width="25.383" height="14.7778" fill="white"/>
</clipPath>
</defs>
</svg>
