<svg preserveAspectRatio="none" width="100%" height="100%" overflow="visible" style="display: block;" viewBox="0 0 34 33.8745" fill="none" xmlns="http://www.w3.org/2000/svg">
<g id="parallel-icon.svg" clip-path="url(#clip0_0_24)">
<path id="Vector" d="M33.599 13.255H24.3179C24.3427 13.401 24.3629 13.5493 24.3833 13.6976H9.61915C9.59209 13.8931 9.56501 14.0908 9.54247 14.2863H0.204931C0.159821 14.5783 0.119224 14.8726 0.0876482 15.1714H9.45675C9.44097 15.3669 9.42969 15.5646 9.41841 15.7601H24.584C24.5908 15.9061 24.5976 16.0543 24.6021 16.2026H33.9599V15.7308C33.899 14.8861 33.7794 14.0593 33.599 13.255Z" fill="var(--fill-0, #1D1C1A)"/>
<path id="Vector_2" d="M24.584 18.1167H9.41841C9.42743 18.3145 9.44097 18.5099 9.45675 18.7054H0.0876482C0.119224 19.002 0.157567 19.2962 0.204931 19.5905H9.54247C9.56501 19.7882 9.58983 19.9837 9.61915 20.1792H24.3833C24.3629 20.3275 24.3405 20.4735 24.3179 20.6217H33.599C33.7794 19.8175 33.899 18.9907 33.9599 18.146V17.6742H24.6021C24.5976 17.8224 24.5908 17.9684 24.584 18.1167Z" fill="var(--fill-0, #1D1C1A)"/>
<path id="Vector_3" d="M23.9164 22.5381H10.0816C10.1312 22.7358 10.1853 22.9313 10.2394 23.1268H1.16804C1.28533 23.4255 1.41163 23.7198 1.54469 24.0119H10.5078C10.5732 24.2096 10.6386 24.4051 10.7086 24.6004H23.2849C23.2308 24.7487 23.1767 24.8948 23.1203 25.0431H31.9323C32.4443 24.1108 32.8683 23.1245 33.1975 22.0955H24.0202C23.9863 22.2438 23.9503 22.3898 23.9142 22.5381H23.9164Z" fill="var(--fill-0, #1D1C1A)"/>
<path id="Vector_4" d="M22.2902 26.9595H11.71C11.8069 27.1571 11.9084 27.3548 12.0122 27.548H3.74823C3.99407 27.8514 4.24895 28.1456 4.51283 28.4333H12.5039C12.6212 28.6309 12.7407 28.8286 12.8625 29.0218H21.14C21.0475 29.1701 20.9528 29.3184 20.8558 29.4644H28.4498C29.4174 28.586 30.2813 27.5952 31.0256 26.5169H22.5022C22.4323 26.6652 22.3647 26.8135 22.2925 26.9595H22.2902Z" fill="var(--fill-0, #1D1C1A)"/>
<path id="Vector_5" d="M19.4393 31.3786H14.5608C14.7255 31.5785 14.8924 31.7739 15.0638 31.9672H9.16131C11.4934 33.1758 14.1414 33.8678 16.9493 33.8745C16.9674 33.8745 16.9832 33.8745 16.999 33.8745C17.0148 33.8745 17.0327 33.8745 17.0486 33.8745C20.5807 33.8634 23.86 32.7805 26.5733 30.9337H19.7913C19.674 31.082 19.5566 31.2303 19.4371 31.3764L19.4393 31.3786Z" fill="var(--fill-0, #1D1C1A)"/>
<path id="Vector_6" d="M14.5609 2.49823H19.4393C19.5589 2.64427 19.6762 2.79254 19.7935 2.94082H26.5756C23.8601 1.0941 20.5829 0.0112331 17.0509 0C17.0329 0 17.0171 0 17.0013 0C16.9854 0 16.9674 0 16.9517 0C14.1414 0.00898648 11.4957 0.698699 9.1636 1.90737H15.0661C14.8946 2.10059 14.7278 2.29829 14.5632 2.49599L14.5609 2.49823Z" fill="var(--fill-0, #1D1C1A)"/>
<path id="Vector_7" d="M11.71 6.91959H22.2903C22.3625 7.06561 22.4323 7.2139 22.5001 7.36217H31.0233C30.2791 6.28379 29.4153 5.29303 28.4476 4.41461H20.8535C20.9505 4.56064 21.0452 4.70891 21.1377 4.85719H12.8603C12.7385 5.05265 12.6189 5.24811 12.5017 5.44581H4.51062C4.24448 5.73112 3.98962 6.02543 3.74602 6.33098H12.01C11.9062 6.52643 11.807 6.72189 11.7077 6.91959H11.71Z" fill="var(--fill-0, #1D1C1A)"/>
<path id="Vector_8" d="M10.0838 11.3387H23.9187C23.9547 11.4847 23.9908 11.633 24.0247 11.7813H33.2021C32.8727 10.7523 32.4488 9.76603 31.9368 8.83369H23.1248C23.1811 8.97971 23.2353 9.128 23.2894 9.27627H10.713C10.6431 9.47172 10.5755 9.66718 10.5123 9.86488H1.54918C1.41611 10.1547 1.2898 10.449 1.17252 10.75H10.2439C10.1898 10.9455 10.1357 11.141 10.086 11.3387H10.0838Z" fill="var(--fill-0, #1D1C1A)"/>
</g>
<defs>
<clipPath id="clip0_0_24">
<rect width="34" height="33.8745" fill="white"/>
</clipPath>
</defs>
</svg>
